<mxfile host="app.diagrams.net" modified="2020-12-15T11:19:47.333Z" agent="5.0 (Windows)" etag="BUl7ZCXj6LX2w7-AJnhn" version="14.0.1" type="github">
  <diagram id="C5RBs43oDa-KdzZeNtuy" name="Page-1">
    <mxGraphModel dx="1431" dy="691" grid="1" gridSize="10" guides="1" tooltips="1" connect="1" arrows="1" fold="1" page="1" pageScale="1" pageWidth="827" pageHeight="1169" math="0" shadow="0">
      <root>
        <mxCell id="WIyWlLk6GJQsqaUBKTNV-0" />
        <mxCell id="WIyWlLk6GJQsqaUBKTNV-1" parent="WIyWlLk6GJQsqaUBKTNV-0" />
        <mxCell id="UC5XE25ki6d0Es6Su3fQ-34" style="edgeStyle=orthogonalEdgeStyle;rounded=0;orthogonalLoop=1;jettySize=auto;html=1;entryX=0.5;entryY=0;entryDx=0;entryDy=0;" edge="1" parent="WIyWlLk6GJQsqaUBKTNV-1" source="WIyWlLk6GJQsqaUBKTNV-3" target="UC5XE25ki6d0Es6Su3fQ-0">
          <mxGeometry relative="1" as="geometry" />
        </mxCell>
        <mxCell id="WIyWlLk6GJQsqaUBKTNV-3" value="Утверждение решения о проведении акции " style="rounded=1;whiteSpace=wrap;html=1;fontSize=12;glass=0;strokeWidth=1;shadow=0;" parent="WIyWlLk6GJQsqaUBKTNV-1" vertex="1">
          <mxGeometry x="155" y="70" width="170" height="60" as="geometry" />
        </mxCell>
        <mxCell id="UC5XE25ki6d0Es6Su3fQ-31" value="" style="edgeStyle=orthogonalEdgeStyle;rounded=0;orthogonalLoop=1;jettySize=auto;html=1;" edge="1" parent="WIyWlLk6GJQsqaUBKTNV-1" source="UC5XE25ki6d0Es6Su3fQ-0" target="UC5XE25ki6d0Es6Su3fQ-30">
          <mxGeometry relative="1" as="geometry" />
        </mxCell>
        <mxCell id="UC5XE25ki6d0Es6Su3fQ-0" value="&lt;p&gt;&lt;span&gt;&lt;span&gt;&lt;/span&gt;&lt;/span&gt;Определение рабочей команды Заказчика и Исполнителя&lt;/p&gt;" style="rounded=1;whiteSpace=wrap;html=1;fontSize=12;glass=0;strokeWidth=1;shadow=0;" vertex="1" parent="WIyWlLk6GJQsqaUBKTNV-1">
          <mxGeometry x="155" y="160" width="170" height="60" as="geometry" />
        </mxCell>
        <mxCell id="UC5XE25ki6d0Es6Su3fQ-5" value="" style="edgeStyle=orthogonalEdgeStyle;rounded=0;orthogonalLoop=1;jettySize=auto;html=1;" edge="1" parent="WIyWlLk6GJQsqaUBKTNV-1" source="UC5XE25ki6d0Es6Su3fQ-1" target="UC5XE25ki6d0Es6Su3fQ-4">
          <mxGeometry relative="1" as="geometry" />
        </mxCell>
        <mxCell id="UC5XE25ki6d0Es6Su3fQ-1" value="&lt;p&gt;&lt;span&gt;&lt;span&gt;&lt;/span&gt;&lt;/span&gt;Выбор разработчика страницы сайта, разработка страницы.&lt;/p&gt;" style="whiteSpace=wrap;html=1;rounded=1;shadow=0;strokeWidth=1;glass=0;" vertex="1" parent="WIyWlLk6GJQsqaUBKTNV-1">
          <mxGeometry x="160" y="490" width="160" height="60" as="geometry" />
        </mxCell>
        <mxCell id="UC5XE25ki6d0Es6Su3fQ-7" value="" style="edgeStyle=orthogonalEdgeStyle;rounded=0;orthogonalLoop=1;jettySize=auto;html=1;entryX=0;entryY=0.5;entryDx=0;entryDy=0;" edge="1" parent="WIyWlLk6GJQsqaUBKTNV-1" source="UC5XE25ki6d0Es6Su3fQ-4" target="UC5XE25ki6d0Es6Su3fQ-6">
          <mxGeometry relative="1" as="geometry" />
        </mxCell>
        <mxCell id="UC5XE25ki6d0Es6Su3fQ-4" value="&lt;p&gt;&lt;span&gt;&lt;span&gt;&lt;/span&gt;&lt;/span&gt;Выбор кол-центра, утверждение плана работы.&lt;/p&gt;" style="whiteSpace=wrap;html=1;rounded=1;shadow=0;strokeWidth=1;glass=0;" vertex="1" parent="WIyWlLk6GJQsqaUBKTNV-1">
          <mxGeometry x="160" y="590" width="160" height="60" as="geometry" />
        </mxCell>
        <mxCell id="UC5XE25ki6d0Es6Su3fQ-29" value="" style="edgeStyle=orthogonalEdgeStyle;rounded=0;orthogonalLoop=1;jettySize=auto;html=1;" edge="1" parent="WIyWlLk6GJQsqaUBKTNV-1" source="UC5XE25ki6d0Es6Su3fQ-6" target="UC5XE25ki6d0Es6Su3fQ-8">
          <mxGeometry relative="1" as="geometry" />
        </mxCell>
        <mxCell id="UC5XE25ki6d0Es6Su3fQ-6" value="&lt;p&gt;&lt;span&gt;&lt;span&gt;&lt;/span&gt;&lt;/span&gt;Определение целевого сегмента клиентов. &lt;span&gt;&lt;span&gt;&lt;/span&gt;&lt;/span&gt;Составление 3 списков для СМС, обзвона и &lt;span lang=&quot;EN-US&quot;&gt;e&lt;/span&gt;-&lt;span lang=&quot;EN-US&quot;&gt;mail&lt;/span&gt;&lt;/p&gt;" style="whiteSpace=wrap;html=1;rounded=1;shadow=0;strokeWidth=1;glass=0;" vertex="1" parent="WIyWlLk6GJQsqaUBKTNV-1">
          <mxGeometry x="430" y="30" width="160" height="60" as="geometry" />
        </mxCell>
        <mxCell id="UC5XE25ki6d0Es6Su3fQ-11" value="" style="edgeStyle=orthogonalEdgeStyle;rounded=0;orthogonalLoop=1;jettySize=auto;html=1;entryX=0.5;entryY=0;entryDx=0;entryDy=0;" edge="1" parent="WIyWlLk6GJQsqaUBKTNV-1" source="UC5XE25ki6d0Es6Su3fQ-8" target="UC5XE25ki6d0Es6Su3fQ-14">
          <mxGeometry relative="1" as="geometry">
            <mxPoint x="240" y="620" as="targetPoint" />
          </mxGeometry>
        </mxCell>
        <mxCell id="UC5XE25ki6d0Es6Su3fQ-8" value="&lt;p&gt;&lt;span&gt;&lt;span&gt;&lt;/span&gt;&lt;/span&gt;Составление списка новых автомобилей и авто с пробегом,участвующих в акции&lt;/p&gt;" style="whiteSpace=wrap;html=1;rounded=1;shadow=0;strokeWidth=1;glass=0;" vertex="1" parent="WIyWlLk6GJQsqaUBKTNV-1">
          <mxGeometry x="430" y="130" width="160" height="60" as="geometry" />
        </mxCell>
        <mxCell id="UC5XE25ki6d0Es6Su3fQ-17" value="" style="edgeStyle=orthogonalEdgeStyle;rounded=0;orthogonalLoop=1;jettySize=auto;html=1;" edge="1" parent="WIyWlLk6GJQsqaUBKTNV-1" source="UC5XE25ki6d0Es6Su3fQ-14" target="UC5XE25ki6d0Es6Su3fQ-16">
          <mxGeometry relative="1" as="geometry" />
        </mxCell>
        <mxCell id="UC5XE25ki6d0Es6Su3fQ-14" value="&lt;span&gt;Отправка предложений Клиентам &lt;br&gt;&lt;/span&gt;" style="whiteSpace=wrap;html=1;rounded=1;shadow=0;strokeWidth=1;glass=0;" vertex="1" parent="WIyWlLk6GJQsqaUBKTNV-1">
          <mxGeometry x="430" y="210" width="160" height="60" as="geometry" />
        </mxCell>
        <mxCell id="UC5XE25ki6d0Es6Su3fQ-19" value="" style="edgeStyle=orthogonalEdgeStyle;rounded=0;orthogonalLoop=1;jettySize=auto;html=1;" edge="1" parent="WIyWlLk6GJQsqaUBKTNV-1" source="UC5XE25ki6d0Es6Su3fQ-16" target="UC5XE25ki6d0Es6Su3fQ-18">
          <mxGeometry relative="1" as="geometry" />
        </mxCell>
        <mxCell id="UC5XE25ki6d0Es6Su3fQ-16" value="&lt;p&gt;&lt;span&gt;&lt;span&gt;&lt;/span&gt;&lt;/span&gt;Обзвон Клиентов кол-центром&lt;/p&gt;" style="whiteSpace=wrap;html=1;rounded=1;shadow=0;strokeWidth=1;glass=0;" vertex="1" parent="WIyWlLk6GJQsqaUBKTNV-1">
          <mxGeometry x="430" y="300" width="160" height="60" as="geometry" />
        </mxCell>
        <mxCell id="UC5XE25ki6d0Es6Su3fQ-21" value="" style="edgeStyle=orthogonalEdgeStyle;rounded=0;orthogonalLoop=1;jettySize=auto;html=1;" edge="1" parent="WIyWlLk6GJQsqaUBKTNV-1" source="UC5XE25ki6d0Es6Su3fQ-18" target="UC5XE25ki6d0Es6Su3fQ-20">
          <mxGeometry relative="1" as="geometry" />
        </mxCell>
        <mxCell id="UC5XE25ki6d0Es6Su3fQ-18" value="&lt;p&gt;&lt;span&gt;&lt;span&gt;&lt;/span&gt;&lt;/span&gt;Составление списков Клиентов: недозвонились/отказались/подтвердили&lt;/p&gt;" style="whiteSpace=wrap;html=1;rounded=1;shadow=0;strokeWidth=1;glass=0;" vertex="1" parent="WIyWlLk6GJQsqaUBKTNV-1">
          <mxGeometry x="430" y="390" width="160" height="60" as="geometry" />
        </mxCell>
        <mxCell id="UC5XE25ki6d0Es6Su3fQ-25" value="" style="edgeStyle=orthogonalEdgeStyle;rounded=0;orthogonalLoop=1;jettySize=auto;html=1;" edge="1" parent="WIyWlLk6GJQsqaUBKTNV-1" source="UC5XE25ki6d0Es6Su3fQ-20" target="UC5XE25ki6d0Es6Su3fQ-24">
          <mxGeometry relative="1" as="geometry" />
        </mxCell>
        <mxCell id="UC5XE25ki6d0Es6Su3fQ-20" value="&lt;span&gt;Передача списка подтвердивших Клиентов в дилерский центр &lt;/span&gt;" style="whiteSpace=wrap;html=1;rounded=1;shadow=0;strokeWidth=1;glass=0;" vertex="1" parent="WIyWlLk6GJQsqaUBKTNV-1">
          <mxGeometry x="430" y="480" width="160" height="60" as="geometry" />
        </mxCell>
        <mxCell id="UC5XE25ki6d0Es6Su3fQ-24" value="Продажа дилерским центром" style="whiteSpace=wrap;html=1;rounded=1;shadow=0;strokeWidth=1;glass=0;" vertex="1" parent="WIyWlLk6GJQsqaUBKTNV-1">
          <mxGeometry x="430" y="570" width="160" height="60" as="geometry" />
        </mxCell>
        <mxCell id="UC5XE25ki6d0Es6Su3fQ-33" value="" style="edgeStyle=orthogonalEdgeStyle;rounded=0;orthogonalLoop=1;jettySize=auto;html=1;" edge="1" parent="WIyWlLk6GJQsqaUBKTNV-1" source="UC5XE25ki6d0Es6Su3fQ-30" target="UC5XE25ki6d0Es6Su3fQ-32">
          <mxGeometry relative="1" as="geometry" />
        </mxCell>
        <mxCell id="UC5XE25ki6d0Es6Su3fQ-30" value="Подготовка проекта проведения акции" style="whiteSpace=wrap;html=1;rounded=1;shadow=0;strokeWidth=1;glass=0;" vertex="1" parent="WIyWlLk6GJQsqaUBKTNV-1">
          <mxGeometry x="160" y="250" width="160" height="40" as="geometry" />
        </mxCell>
        <mxCell id="UC5XE25ki6d0Es6Su3fQ-39" value="" style="edgeStyle=orthogonalEdgeStyle;rounded=0;orthogonalLoop=1;jettySize=auto;html=1;" edge="1" parent="WIyWlLk6GJQsqaUBKTNV-1" source="UC5XE25ki6d0Es6Su3fQ-32" target="UC5XE25ki6d0Es6Su3fQ-38">
          <mxGeometry relative="1" as="geometry" />
        </mxCell>
        <mxCell id="UC5XE25ki6d0Es6Su3fQ-32" value="Утверждение проекта акции" style="whiteSpace=wrap;html=1;rounded=1;shadow=0;strokeWidth=1;glass=0;" vertex="1" parent="WIyWlLk6GJQsqaUBKTNV-1">
          <mxGeometry x="160" y="315" width="160" height="35" as="geometry" />
        </mxCell>
        <mxCell id="UC5XE25ki6d0Es6Su3fQ-40" style="edgeStyle=orthogonalEdgeStyle;rounded=0;orthogonalLoop=1;jettySize=auto;html=1;exitX=0;exitY=0.5;exitDx=0;exitDy=0;exitPerimeter=0;entryX=0;entryY=0.5;entryDx=0;entryDy=0;" edge="1" parent="WIyWlLk6GJQsqaUBKTNV-1" source="UC5XE25ki6d0Es6Su3fQ-38" target="UC5XE25ki6d0Es6Su3fQ-30">
          <mxGeometry relative="1" as="geometry">
            <mxPoint x="110" y="415" as="targetPoint" />
          </mxGeometry>
        </mxCell>
        <mxCell id="UC5XE25ki6d0Es6Su3fQ-44" value="&lt;font style=&quot;font-size: 8px&quot;&gt;если не утвержден&lt;/font&gt;" style="edgeLabel;html=1;align=center;verticalAlign=middle;resizable=0;points=[];" vertex="1" connectable="0" parent="UC5XE25ki6d0Es6Su3fQ-40">
          <mxGeometry x="-0.1889" relative="1" as="geometry">
            <mxPoint x="-0.6699999999999999" as="offset" />
          </mxGeometry>
        </mxCell>
        <mxCell id="UC5XE25ki6d0Es6Su3fQ-41" value="" style="edgeStyle=orthogonalEdgeStyle;rounded=0;orthogonalLoop=1;jettySize=auto;html=1;" edge="1" parent="WIyWlLk6GJQsqaUBKTNV-1" source="UC5XE25ki6d0Es6Su3fQ-38" target="UC5XE25ki6d0Es6Su3fQ-1">
          <mxGeometry relative="1" as="geometry" />
        </mxCell>
        <mxCell id="UC5XE25ki6d0Es6Su3fQ-45" value="&lt;font style=&quot;font-size: 8px&quot;&gt;если проект утвержден&lt;/font&gt;" style="edgeLabel;html=1;align=center;verticalAlign=middle;resizable=0;points=[];" vertex="1" connectable="0" parent="UC5XE25ki6d0Es6Su3fQ-41">
          <mxGeometry x="-0.2667" relative="1" as="geometry">
            <mxPoint as="offset" />
          </mxGeometry>
        </mxCell>
        <mxCell id="UC5XE25ki6d0Es6Su3fQ-38" value="" style="strokeWidth=2;html=1;shape=mxgraph.flowchart.decision;whiteSpace=wrap;" vertex="1" parent="WIyWlLk6GJQsqaUBKTNV-1">
          <mxGeometry x="210" y="390" width="60" height="50" as="geometry" />
        </mxCell>
      </root>
    </mxGraphModel>
  </diagram>
</mxfile>
